<mxfile host="app.diagrams.net" agent="Mozilla/5.0 (Windows NT 10.0; Win64; x64) AppleWebKit/537.36 (KHTML, like Gecko) Chrome/137.0.0.0 Safari/537.36 OPR/121.0.0.0" version="28.2.0">
  <diagram name="Страница — 2" id="Cq44oFLjoyiqE8RRYl0i">
    <mxGraphModel dx="1384" dy="755" grid="1" gridSize="10" guides="1" tooltips="1" connect="1" arrows="1" fold="1" page="1" pageScale="1" pageWidth="827" pageHeight="1169" math="0" shadow="0">
      <root>
        <mxCell id="0" />
        <mxCell id="1" parent="0" />
        <mxCell id="xJCdvGsEQJVozeYoEkow-44" value="" style="rounded=0;whiteSpace=wrap;html=1;" parent="1" vertex="1">
          <mxGeometry x="514" y="320" width="130" height="530" as="geometry" />
        </mxCell>
        <mxCell id="xJCdvGsEQJVozeYoEkow-42" value="" style="rounded=0;whiteSpace=wrap;html=1;" parent="1" vertex="1">
          <mxGeometry x="294.5" y="320" width="219.5" height="530" as="geometry" />
        </mxCell>
        <mxCell id="xJCdvGsEQJVozeYoEkow-40" value="" style="rounded=0;whiteSpace=wrap;html=1;" parent="1" vertex="1">
          <mxGeometry x="184" y="320" width="110" height="530" as="geometry" />
        </mxCell>
        <mxCell id="SRcf4w2CBNK6YAiHHpuh-1" style="edgeStyle=orthogonalEdgeStyle;rounded=0;orthogonalLoop=1;jettySize=auto;html=1;entryX=0.5;entryY=0;entryDx=0;entryDy=0;fontFamily=Helvetica;fontSize=8;fontColor=default;endArrow=none;endFill=0;" parent="1" edge="1">
          <mxGeometry relative="1" as="geometry">
            <mxPoint x="239" y="381" as="sourcePoint" />
            <mxPoint x="238.5" y="400" as="targetPoint" />
          </mxGeometry>
        </mxCell>
        <mxCell id="xJCdvGsEQJVozeYoEkow-1" value="" style="ellipse;html=1;shape=endState;fillColor=#000000;strokeColor=none;strokeWidth=1;gradientColor=default;gradientDirection=north;" parent="1" vertex="1">
          <mxGeometry x="224" y="355" width="30" height="30" as="geometry" />
        </mxCell>
        <mxCell id="xJCdvGsEQJVozeYoEkow-9" style="edgeStyle=orthogonalEdgeStyle;rounded=0;orthogonalLoop=1;jettySize=auto;html=1;exitX=1;exitY=0.5;exitDx=0;exitDy=0;entryX=0.5;entryY=0;entryDx=0;entryDy=0;endArrow=none;endFill=0;" parent="1" source="xJCdvGsEQJVozeYoEkow-6" target="xJCdvGsEQJVozeYoEkow-8" edge="1">
          <mxGeometry relative="1" as="geometry" />
        </mxCell>
        <mxCell id="xJCdvGsEQJVozeYoEkow-6" value="Создать заявку" style="rounded=1;whiteSpace=wrap;html=1;strokeWidth=1;perimeterSpacing=0;fontSize=8;" parent="1" vertex="1">
          <mxGeometry x="196" y="399" width="85" height="30" as="geometry" />
        </mxCell>
        <mxCell id="xJCdvGsEQJVozeYoEkow-11" style="edgeStyle=orthogonalEdgeStyle;rounded=0;orthogonalLoop=1;jettySize=auto;html=1;exitX=0.5;exitY=1;exitDx=0;exitDy=0;entryX=0.5;entryY=0;entryDx=0;entryDy=0;endArrow=none;endFill=0;" parent="1" target="xJCdvGsEQJVozeYoEkow-10" edge="1">
          <mxGeometry relative="1" as="geometry">
            <mxPoint x="403.5" y="464" as="sourcePoint" />
            <mxPoint x="284.5" y="490" as="targetPoint" />
            <Array as="points">
              <mxPoint x="404" y="470" />
              <mxPoint x="238" y="470" />
            </Array>
          </mxGeometry>
        </mxCell>
        <mxCell id="xJCdvGsEQJVozeYoEkow-8" value="Открыть страницу создания заявки" style="rounded=1;whiteSpace=wrap;html=1;strokeWidth=1;perimeterSpacing=0;fontSize=8;" parent="1" vertex="1">
          <mxGeometry x="361" y="434" width="85" height="30" as="geometry" />
        </mxCell>
        <mxCell id="xJCdvGsEQJVozeYoEkow-13" style="edgeStyle=orthogonalEdgeStyle;rounded=0;orthogonalLoop=1;jettySize=auto;html=1;exitX=0.5;exitY=1;exitDx=0;exitDy=0;entryX=0.5;entryY=0;entryDx=0;entryDy=0;endArrow=none;endFill=0;" parent="1" source="xJCdvGsEQJVozeYoEkow-10" target="xJCdvGsEQJVozeYoEkow-12" edge="1">
          <mxGeometry relative="1" as="geometry" />
        </mxCell>
        <mxCell id="xJCdvGsEQJVozeYoEkow-10" value="Заполнить заявку данными" style="rounded=1;whiteSpace=wrap;html=1;strokeWidth=1;perimeterSpacing=0;fontSize=8;" parent="1" vertex="1">
          <mxGeometry x="196" y="482" width="85" height="30" as="geometry" />
        </mxCell>
        <mxCell id="P4i_h_b2QhCyt63hFaWK-3" style="edgeStyle=orthogonalEdgeStyle;rounded=0;orthogonalLoop=1;jettySize=auto;html=1;exitX=0.5;exitY=1;exitDx=0;exitDy=0;entryX=0.5;entryY=0;entryDx=0;entryDy=0;fontFamily=Helvetica;fontSize=8;fontColor=default;endArrow=none;endFill=0;" parent="1" edge="1">
          <mxGeometry relative="1" as="geometry">
            <mxPoint x="238.5" y="560" as="sourcePoint" />
            <mxPoint x="403.005" y="580" as="targetPoint" />
            <Array as="points">
              <mxPoint x="238" y="570" />
              <mxPoint x="404" y="570" />
              <mxPoint x="404" y="580" />
            </Array>
          </mxGeometry>
        </mxCell>
        <mxCell id="xJCdvGsEQJVozeYoEkow-12" value="Создать заявку" style="rounded=1;whiteSpace=wrap;html=1;strokeWidth=1;perimeterSpacing=0;fontSize=8;" parent="1" vertex="1">
          <mxGeometry x="196" y="530" width="85" height="30" as="geometry" />
        </mxCell>
        <mxCell id="xJCdvGsEQJVozeYoEkow-17" style="edgeStyle=orthogonalEdgeStyle;rounded=0;orthogonalLoop=1;jettySize=auto;html=1;exitX=0;exitY=0.5;exitDx=0;exitDy=0;entryX=0.5;entryY=0;entryDx=0;entryDy=0;endArrow=none;endFill=0;" parent="1" source="xJCdvGsEQJVozeYoEkow-14" target="xJCdvGsEQJVozeYoEkow-16" edge="1">
          <mxGeometry relative="1" as="geometry" />
        </mxCell>
        <mxCell id="xJCdvGsEQJVozeYoEkow-19" style="edgeStyle=orthogonalEdgeStyle;rounded=0;orthogonalLoop=1;jettySize=auto;html=1;exitX=1;exitY=0.5;exitDx=0;exitDy=0;entryX=0.5;entryY=0;entryDx=0;entryDy=0;endArrow=none;endFill=0;" parent="1" source="xJCdvGsEQJVozeYoEkow-14" target="xJCdvGsEQJVozeYoEkow-18" edge="1">
          <mxGeometry relative="1" as="geometry" />
        </mxCell>
        <mxCell id="xJCdvGsEQJVozeYoEkow-14" value="" style="rhombus;whiteSpace=wrap;html=1;strokeWidth=1;" parent="1" vertex="1">
          <mxGeometry x="363.5" y="629" width="80" height="40" as="geometry" />
        </mxCell>
        <mxCell id="P4i_h_b2QhCyt63hFaWK-1" style="edgeStyle=orthogonalEdgeStyle;rounded=0;orthogonalLoop=1;jettySize=auto;html=1;exitX=0;exitY=0.5;exitDx=0;exitDy=0;fontFamily=Helvetica;fontSize=8;fontColor=default;" parent="1" edge="1">
          <mxGeometry relative="1" as="geometry">
            <mxPoint x="239" y="474" as="targetPoint" />
            <mxPoint x="304.5" y="705" as="sourcePoint" />
            <Array as="points">
              <mxPoint x="189" y="705" />
              <mxPoint x="189" y="474" />
            </Array>
          </mxGeometry>
        </mxCell>
        <mxCell id="xJCdvGsEQJVozeYoEkow-16" value="Ошибка создания заявки" style="rounded=1;whiteSpace=wrap;html=1;strokeWidth=1;perimeterSpacing=0;fontSize=8;" parent="1" vertex="1">
          <mxGeometry x="299.5" y="686" width="85" height="30" as="geometry" />
        </mxCell>
        <mxCell id="xJCdvGsEQJVozeYoEkow-34" style="edgeStyle=orthogonalEdgeStyle;rounded=0;orthogonalLoop=1;jettySize=auto;html=1;exitX=1;exitY=0.5;exitDx=0;exitDy=0;entryX=0.5;entryY=0;entryDx=0;entryDy=0;endArrow=none;endFill=0;" parent="1" source="xJCdvGsEQJVozeYoEkow-18" target="xJCdvGsEQJVozeYoEkow-22" edge="1">
          <mxGeometry relative="1" as="geometry" />
        </mxCell>
        <mxCell id="xJCdvGsEQJVozeYoEkow-18" value="Передача данных о заявке в бд" style="rounded=1;whiteSpace=wrap;html=1;strokeWidth=1;perimeterSpacing=0;fontSize=8;" parent="1" vertex="1">
          <mxGeometry x="424" y="686" width="85" height="30" as="geometry" />
        </mxCell>
        <mxCell id="xJCdvGsEQJVozeYoEkow-20" value="[Введённые данные некорректны]" style="text;html=1;align=center;verticalAlign=middle;whiteSpace=wrap;rounded=0;fontSize=8;" parent="1" vertex="1">
          <mxGeometry x="304" y="626" width="80.5" height="17" as="geometry" />
        </mxCell>
        <mxCell id="xJCdvGsEQJVozeYoEkow-21" value="[Введённые данные корректные]" style="text;html=1;align=center;verticalAlign=middle;whiteSpace=wrap;rounded=0;fontSize=8;" parent="1" vertex="1">
          <mxGeometry x="417.5" y="626" width="85.5" height="17" as="geometry" />
        </mxCell>
        <mxCell id="xJCdvGsEQJVozeYoEkow-35" style="edgeStyle=orthogonalEdgeStyle;rounded=0;orthogonalLoop=1;jettySize=auto;html=1;exitX=0.5;exitY=1;exitDx=0;exitDy=0;endArrow=none;endFill=0;entryX=0.5;entryY=0;entryDx=0;entryDy=0;" parent="1" source="xJCdvGsEQJVozeYoEkow-22" target="xJCdvGsEQJVozeYoEkow-23" edge="1">
          <mxGeometry relative="1" as="geometry">
            <mxPoint x="586.5" y="761" as="sourcePoint" />
            <mxPoint x="404" y="776" as="targetPoint" />
            <Array as="points">
              <mxPoint x="582" y="766" />
              <mxPoint x="404" y="766" />
            </Array>
          </mxGeometry>
        </mxCell>
        <mxCell id="xJCdvGsEQJVozeYoEkow-22" value="Сохранение данных о создании заявки в бд" style="rounded=1;whiteSpace=wrap;html=1;strokeWidth=1;perimeterSpacing=0;fontSize=8;" parent="1" vertex="1">
          <mxGeometry x="539" y="726" width="85" height="30" as="geometry" />
        </mxCell>
        <mxCell id="xJCdvGsEQJVozeYoEkow-38" style="edgeStyle=orthogonalEdgeStyle;rounded=0;orthogonalLoop=1;jettySize=auto;html=1;exitX=0;exitY=0.5;exitDx=0;exitDy=0;entryX=0.5;entryY=0;entryDx=0;entryDy=0;endArrow=none;endFill=0;" parent="1" source="xJCdvGsEQJVozeYoEkow-23" target="xJCdvGsEQJVozeYoEkow-25" edge="1">
          <mxGeometry relative="1" as="geometry">
            <Array as="points">
              <mxPoint x="238" y="793" />
            </Array>
          </mxGeometry>
        </mxCell>
        <mxCell id="xJCdvGsEQJVozeYoEkow-23" value="Вывод сообщения об успешном сохранении" style="rounded=1;whiteSpace=wrap;html=1;strokeWidth=1;perimeterSpacing=0;fontSize=8;" parent="1" vertex="1">
          <mxGeometry x="354" y="778" width="100" height="30" as="geometry" />
        </mxCell>
        <mxCell id="xJCdvGsEQJVozeYoEkow-25" value="" style="ellipse;html=1;shape=endState;fillColor=#000000;strokeColor=#000000;" parent="1" vertex="1">
          <mxGeometry x="223" y="805" width="30.5" height="30" as="geometry" />
        </mxCell>
        <mxCell id="xJCdvGsEQJVozeYoEkow-41" value="Клиент" style="text;html=1;align=center;verticalAlign=middle;whiteSpace=wrap;rounded=0;fontSize=8;fontStyle=1" parent="1" vertex="1">
          <mxGeometry x="204" y="330" width="70" height="16" as="geometry" />
        </mxCell>
        <mxCell id="xJCdvGsEQJVozeYoEkow-43" value="Система" style="text;html=1;align=center;verticalAlign=middle;whiteSpace=wrap;rounded=0;fontSize=8;fontStyle=1" parent="1" vertex="1">
          <mxGeometry x="374.25" y="330" width="70" height="16" as="geometry" />
        </mxCell>
        <mxCell id="xJCdvGsEQJVozeYoEkow-45" value="База данных" style="text;html=1;align=center;verticalAlign=middle;whiteSpace=wrap;rounded=0;fontSize=8;fontStyle=1" parent="1" vertex="1">
          <mxGeometry x="546.5" y="330" width="70" height="16" as="geometry" />
        </mxCell>
        <mxCell id="P4i_h_b2QhCyt63hFaWK-4" style="edgeStyle=orthogonalEdgeStyle;rounded=0;orthogonalLoop=1;jettySize=auto;html=1;exitX=0.5;exitY=1;exitDx=0;exitDy=0;entryX=0.5;entryY=0;entryDx=0;entryDy=0;fontFamily=Helvetica;fontSize=8;fontColor=default;endArrow=none;endFill=0;" parent="1" source="P4i_h_b2QhCyt63hFaWK-2" target="xJCdvGsEQJVozeYoEkow-14" edge="1">
          <mxGeometry relative="1" as="geometry" />
        </mxCell>
        <mxCell id="P4i_h_b2QhCyt63hFaWK-2" value="Проверка введённых данных на корректность" style="rounded=1;whiteSpace=wrap;html=1;strokeWidth=1;perimeterSpacing=0;fontSize=8;" parent="1" vertex="1">
          <mxGeometry x="354.13" y="580" width="97.75" height="30" as="geometry" />
        </mxCell>
      </root>
    </mxGraphModel>
  </diagram>
</mxfile>
